<svg xmlns="http://www.w3.org/2000/svg" width="14.291" height="18.578" viewBox="0 0 14.291 18.578">
  <path id="Icon_ionic-ios-lock" data-name="Icon ionic-ios-lock" d="M19.254,9.806H18.182V7.72a4.287,4.287,0,1,0-8.574-.058V9.806H8.536A1.792,1.792,0,0,0,6.75,11.592v8.574a1.792,1.792,0,0,0,1.786,1.786H19.254a1.792,1.792,0,0,0,1.786-1.786V11.592A1.792,1.792,0,0,0,19.254,9.806Zm-4.734,5.573v3.072a.64.64,0,0,1-.594.643.626.626,0,0,1-.656-.625v-3.09a1.429,1.429,0,1,1,1.25,0Zm2.412-5.573H10.859V7.662a3.037,3.037,0,0,1,6.073,0Z" transform="translate(-6.75 -3.374)" fill="#fff"/>
</svg>
