<svg xmlns="http://www.w3.org/2000/svg" width="300.732" height="95.687" viewBox="0 0 300.732 95.687">
  <g id="Gruppe_51" data-name="Gruppe 51" transform="translate(-331.685 132)">
    <g id="Gruppe_43" data-name="Gruppe 43" transform="translate(331.685 -132)">
      <g id="Gruppe_42" data-name="Gruppe 42" transform="translate(0 0)">
        <g id="Gruppe_22" data-name="Gruppe 22" transform="translate(0 0)">
          <g id="Gruppe_1" data-name="Gruppe 1" transform="translate(22.674 34.847)">
            <path id="Pfad_1" data-name="Pfad 1" d="M827.982-3298.388a4.284,4.284,0,0,1-4.279-4.279,4.284,4.284,0,0,1,4.279-4.279,4.283,4.283,0,0,1,4.279,4.279A4.284,4.284,0,0,1,827.982-3298.388Zm0-6.57a2.294,2.294,0,0,0-2.291,2.291,2.294,2.294,0,0,0,2.291,2.291,2.294,2.294,0,0,0,2.291-2.291A2.294,2.294,0,0,0,827.982-3304.958Z" transform="translate(-823.703 3306.946)" fill="#fff"/>
          </g>
          <g id="Gruppe_2" data-name="Gruppe 2" transform="translate(53.932 34.847)">
            <path id="Pfad_2" data-name="Pfad 2" d="M1089.67-3298.388a4.284,4.284,0,0,1-4.279-4.279,4.284,4.284,0,0,1,4.279-4.279,4.284,4.284,0,0,1,4.279,4.279A4.284,4.284,0,0,1,1089.67-3298.388Zm0-6.57a2.294,2.294,0,0,0-2.291,2.291,2.293,2.293,0,0,0,2.291,2.291,2.294,2.294,0,0,0,2.291-2.291A2.294,2.294,0,0,0,1089.67-3304.958Z" transform="translate(-1085.391 3306.946)" fill="#fff"/>
          </g>
          <g id="Gruppe_3" data-name="Gruppe 3" transform="translate(53.932 52.871)">
            <path id="Pfad_3" data-name="Pfad 3" d="M1089.67-3147.5a4.284,4.284,0,0,1-4.279-4.279,4.284,4.284,0,0,1,4.279-4.279,4.284,4.284,0,0,1,4.279,4.279A4.284,4.284,0,0,1,1089.67-3147.5Zm0-6.57a2.294,2.294,0,0,0-2.291,2.291,2.293,2.293,0,0,0,2.291,2.291,2.293,2.293,0,0,0,2.291-2.291A2.294,2.294,0,0,0,1089.67-3154.068Z" transform="translate(-1085.391 3156.056)" fill="#fff"/>
          </g>
          <g id="Gruppe_4" data-name="Gruppe 4" transform="translate(22.674 52.871)">
            <path id="Pfad_4" data-name="Pfad 4" d="M827.982-3147.5a4.284,4.284,0,0,1-4.279-4.279,4.284,4.284,0,0,1,4.279-4.279,4.283,4.283,0,0,1,4.279,4.279A4.283,4.283,0,0,1,827.982-3147.5Zm0-6.57a2.294,2.294,0,0,0-2.291,2.291,2.294,2.294,0,0,0,2.291,2.291,2.293,2.293,0,0,0,2.291-2.291A2.294,2.294,0,0,0,827.982-3154.068Z" transform="translate(-823.703 3156.056)" fill="#fff"/>
          </g>
          <g id="Gruppe_5" data-name="Gruppe 5" transform="translate(38.304 61.746)">
            <path id="Pfad_5" data-name="Pfad 5" d="M958.827-3073.2a4.284,4.284,0,0,1-4.279-4.279,4.283,4.283,0,0,1,4.279-4.279,4.284,4.284,0,0,1,4.279,4.279A4.284,4.284,0,0,1,958.827-3073.2Zm0-6.57a2.294,2.294,0,0,0-2.291,2.291,2.294,2.294,0,0,0,2.291,2.292,2.294,2.294,0,0,0,2.291-2.292A2.294,2.294,0,0,0,958.827-3079.768Z" transform="translate(-954.548 3081.755)" fill="#fff"/>
          </g>
          <g id="Gruppe_6" data-name="Gruppe 6" transform="translate(38.304 26.418)">
            <path id="Pfad_6" data-name="Pfad 6" d="M958.827-3368.956a4.284,4.284,0,0,1-4.279-4.279,4.284,4.284,0,0,1,4.279-4.279,4.284,4.284,0,0,1,4.279,4.279A4.284,4.284,0,0,1,958.827-3368.956Zm0-6.57a2.294,2.294,0,0,0-2.291,2.292,2.294,2.294,0,0,0,2.291,2.291,2.294,2.294,0,0,0,2.291-2.291A2.294,2.294,0,0,0,958.827-3375.526Z" transform="translate(-954.548 3377.513)" fill="#fff"/>
          </g>
          <g id="Gruppe_15" data-name="Gruppe 15" transform="translate(25.765 30.92)">
            <g id="Gruppe_9" data-name="Gruppe 9" transform="translate(2.53 26.926)">
              <g id="Gruppe_7" data-name="Gruppe 7" transform="translate(16.949)">
                <path id="Pfad_7" data-name="Pfad 7" d="M1012.65-3108.928v2.279l11.123-6.241h-1.362v-1.515Z" transform="translate(-1012.65 3114.406)" fill="#fff"/>
              </g>
              <g id="Gruppe_8" data-name="Gruppe 8" transform="translate(0 0.153)">
                <path id="Pfad_8" data-name="Pfad 8" d="M882.378-3107.688l-9.683-5.434v1.188h-1.944l11.626,6.524Z" transform="translate(-870.752 3113.122)" fill="#fff"/>
              </g>
            </g>
            <g id="Gruppe_10" data-name="Gruppe 10" transform="translate(31.453 11.518)">
              <rect id="Rechteck_1" data-name="Rechteck 1" width="1.988" height="11.6" fill="#fff"/>
            </g>
            <g id="Gruppe_11" data-name="Gruppe 11" transform="translate(0 10.868)">
              <rect id="Rechteck_2" data-name="Rechteck 2" width="1.987" height="12.077" fill="#fff"/>
            </g>
            <g id="Gruppe_14" data-name="Gruppe 14" transform="translate(3.957)">
              <g id="Gruppe_12" data-name="Gruppe 12">
                <path id="Pfad_9" data-name="Pfad 9" d="M893.059-3339.826l-10.361,5.814v2.279l10.361-5.814Z" transform="translate(-882.698 3339.826)" fill="#fff"/>
              </g>
              <g id="Gruppe_13" data-name="Gruppe 13" transform="translate(15.684 0.29)">
                <path id="Pfad_10" data-name="Pfad 10" d="M1014-3337.4v2.279l9.9,5.556v-1.93h.623Z" transform="translate(-1013.999 3337.398)" fill="#fff"/>
              </g>
            </g>
          </g>
          <g id="Gruppe_16" data-name="Gruppe 16" transform="translate(44.389 20.086)">
            <path id="Pfad_11" data-name="Pfad 11" d="M1005.491-3423.132c1.09-.652,2.1-1.167,3.173-1.693s2.129-1,3.211-1.451a58.958,58.958,0,0,1,6.627-2.33,45.3,45.3,0,0,1,13.87-1.9l1.754.079a7.268,7.268,0,0,1,.874.085l.871.114c.58.082,1.159.142,1.738.241.578.134,1.159.214,1.728.4l.856.244.841.312a7.5,7.5,0,0,1,.824.361,6.43,6.43,0,0,1,.8.42,7.6,7.6,0,0,1,2.67,2.464,6.8,6.8,0,0,1,1.037,3.446,11.008,11.008,0,0,1-.524,3.469,17.991,17.991,0,0,1-1.348,3.181,22.075,22.075,0,0,1-1.839,2.9,20.53,20.53,0,0,0,2.741-6.2,10.44,10.44,0,0,0,.278-3.3,5.988,5.988,0,0,0-1.108-2.968,6.567,6.567,0,0,0-2.457-1.969,5.541,5.541,0,0,0-.739-.326,6.382,6.382,0,0,0-.765-.274l-.783-.232-.806-.171c-.53-.133-1.09-.17-1.631-.26-.552-.057-1.113-.076-1.667-.116l-.833-.053a6.686,6.686,0,0,0-.834-.025l-1.67.039a43,43,0,0,0-13.026,2.686,55.858,55.858,0,0,0-6.132,2.633c-.994.5-1.975,1.02-2.934,1.572-.485.268-.95.564-1.423.845-.457.288-.942.595-1.341.874Z" transform="translate(-1005.491 3430.522)" fill="#fff"/>
          </g>
          <g id="Gruppe_17" data-name="Gruppe 17" transform="translate(25.185)">
            <path id="Pfad_12" data-name="Pfad 12" d="M844.72-3563.265c.009-1.271.1-2.4.2-3.59s.253-2.338.428-3.5a58.931,58.931,0,0,1,1.452-6.873,45.3,45.3,0,0,1,5.586-12.836l.979-1.458a7.268,7.268,0,0,1,.527-.7l.55-.685c.371-.454.723-.917,1.109-1.36.415-.424.785-.879,1.236-1.271l.653-.6.7-.556a7.417,7.417,0,0,1,.736-.517,6.486,6.486,0,0,1,.775-.466,7.6,7.6,0,0,1,3.492-1,6.8,6.8,0,0,1,3.483.9,11,11,0,0,1,2.692,2.249,17.981,17.981,0,0,1,2.018,2.8,22.142,22.142,0,0,1,1.52,3.077,20.531,20.531,0,0,0-3.874-5.562,10.432,10.432,0,0,0-2.678-1.953,5.985,5.985,0,0,0-3.112-.595,6.563,6.563,0,0,0-2.959,1.076,5.572,5.572,0,0,0-.662.462,6.518,6.518,0,0,0-.631.511l-.605.548-.565.6c-.389.383-.712.843-1.07,1.259-.335.442-.643.912-.965,1.365l-.478.684a6.622,6.622,0,0,0-.455.7l-.835,1.447a43.009,43.009,0,0,0-4.472,12.525,55.926,55.926,0,0,0-.936,6.607c-.092,1.107-.154,2.217-.181,3.324-.023.554-.011,1.1-.017,1.655s.019,1.114.05,1.6Z" transform="translate(-844.72 3598.683)" fill="#fff"/>
          </g>
          <g id="Gruppe_18" data-name="Gruppe 18" transform="translate(1.135 18.671)">
            <path id="Pfad_13" data-name="Pfad 13" d="M665.054-3404.328c-1.081-.668-2-1.33-2.963-2.036s-1.867-1.43-2.767-2.182a58.894,58.894,0,0,1-5.12-4.809,45.307,45.307,0,0,1-8.07-11.438l-.738-1.594a7.246,7.246,0,0,1-.327-.814l-.3-.826c-.2-.552-.408-1.094-.586-1.653-.147-.574-.343-1.127-.444-1.716l-.177-.872-.11-.89a7.422,7.422,0,0,1-.06-.9,6.461,6.461,0,0,1,0-.9,7.6,7.6,0,0,1,.957-3.5,6.8,6.8,0,0,1,2.581-2.508,11.009,11.009,0,0,1,3.32-1.133,17.99,17.99,0,0,1,3.445-.268,22.094,22.094,0,0,1,3.419.3,20.525,20.525,0,0,0-6.765.423,10.426,10.426,0,0,0-3.06,1.274,5.985,5.985,0,0,0-2.124,2.351,6.566,6.566,0,0,0-.616,3.088,5.485,5.485,0,0,0,.051.806,6.41,6.41,0,0,0,.109.8l.154.8.219.794c.126.531.351,1.046.521,1.568.2.516.445,1.023.665,1.533l.336.764a6.6,6.6,0,0,0,.362.751l.8,1.465a43.012,43.012,0,0,0,8.383,10.325,55.88,55.88,0,0,0,5.161,4.23c.9.653,1.815,1.283,2.747,1.88.461.307.938.583,1.406.874.466.272.962.562,1.394.788Z" transform="translate(-643.376 3442.375)" fill="#fff"/>
          </g>
          <g id="Gruppe_19" data-name="Gruppe 19" transform="translate(0 57.87)">
            <path id="Pfad_14" data-name="Pfad 14" d="M674.751-3103.865c-1.09.652-2.1,1.167-3.172,1.692s-2.129,1-3.211,1.451a58.91,58.91,0,0,1-6.627,2.33,45.3,45.3,0,0,1-13.87,1.895l-1.754-.079a7.315,7.315,0,0,1-.874-.085l-.871-.114c-.58-.081-1.159-.142-1.738-.241-.578-.135-1.158-.215-1.728-.4l-.855-.244-.841-.312a7.423,7.423,0,0,1-.824-.36,6.471,6.471,0,0,1-.8-.42,7.6,7.6,0,0,1-2.67-2.463,6.8,6.8,0,0,1-1.037-3.446,11,11,0,0,1,.524-3.469,17.965,17.965,0,0,1,1.348-3.181,22.131,22.131,0,0,1,1.839-2.9,20.533,20.533,0,0,0-2.741,6.2,10.43,10.43,0,0,0-.278,3.3,5.985,5.985,0,0,0,1.109,2.968,6.568,6.568,0,0,0,2.457,1.969,5.54,5.54,0,0,0,.739.325,6.425,6.425,0,0,0,.764.274l.783.232.806.171c.53.133,1.09.17,1.631.26.552.057,1.113.076,1.667.116l.833.053a6.591,6.591,0,0,0,.834.025l1.67-.038a43.014,43.014,0,0,0,13.026-2.686,55.861,55.861,0,0,0,6.132-2.633c.994-.5,1.975-1.02,2.934-1.572.485-.268.95-.564,1.423-.845.457-.288.942-.595,1.341-.874Z" transform="translate(-633.876 3114.205)" fill="#fff"/>
          </g>
          <g id="Gruppe_20" data-name="Gruppe 20" transform="translate(31.939 60.268)">
            <path id="Pfad_15" data-name="Pfad 15" d="M929.406-3094.128c-.009,1.271-.1,2.4-.2,3.59s-.253,2.338-.428,3.5a58.893,58.893,0,0,1-1.452,6.873,45.3,45.3,0,0,1-5.586,12.835l-.979,1.458a7.283,7.283,0,0,1-.527.7l-.55.685c-.371.454-.723.917-1.109,1.36-.414.424-.785.878-1.236,1.271l-.653.6-.7.556a7.419,7.419,0,0,1-.736.518,6.456,6.456,0,0,1-.775.465,7.6,7.6,0,0,1-3.492,1,6.8,6.8,0,0,1-3.483-.9,11,11,0,0,1-2.692-2.25,17.979,17.979,0,0,1-2.018-2.8,22.128,22.128,0,0,1-1.52-3.077,20.537,20.537,0,0,0,3.873,5.563,10.435,10.435,0,0,0,2.678,1.953,5.983,5.983,0,0,0,3.112.595,6.569,6.569,0,0,0,2.959-1.077,5.56,5.56,0,0,0,.662-.462,6.5,6.5,0,0,0,.632-.511l.605-.549.565-.6c.389-.384.712-.843,1.069-1.259.335-.442.643-.912.965-1.364l.478-.685a6.521,6.521,0,0,0,.455-.7l.835-1.447a43.012,43.012,0,0,0,4.472-12.525,55.9,55.9,0,0,0,.936-6.607c.092-1.107.154-2.217.181-3.324.023-.554.012-1.1.017-1.655s-.019-1.114-.05-1.6Z" transform="translate(-901.265 3094.128)" fill="#fff"/>
          </g>
          <g id="Gruppe_21" data-name="Gruppe 21" transform="translate(60.645 38.969)">
            <path id="Pfad_16" data-name="Pfad 16" d="M1143.393-3272.44c1.081.667,2,1.329,2.963,2.036s1.867,1.43,2.767,2.182a58.9,58.9,0,0,1,5.12,4.81,45.3,45.3,0,0,1,8.07,11.438l.738,1.594a7.257,7.257,0,0,1,.326.815l.3.826c.2.552.408,1.094.586,1.654.147.574.343,1.126.444,1.716l.177.872.11.89a7.436,7.436,0,0,1,.06.9,6.458,6.458,0,0,1,0,.9,7.6,7.6,0,0,1-.957,3.5,6.8,6.8,0,0,1-2.581,2.508,11,11,0,0,1-3.32,1.132,18.013,18.013,0,0,1-3.445.269,22.158,22.158,0,0,1-3.419-.3,20.524,20.524,0,0,0,6.765-.422,10.45,10.45,0,0,0,3.06-1.274,5.989,5.989,0,0,0,2.124-2.351,6.569,6.569,0,0,0,.616-3.088,5.537,5.537,0,0,0-.051-.806,6.39,6.39,0,0,0-.109-.8l-.154-.8-.219-.794c-.126-.532-.351-1.046-.521-1.568-.2-.516-.446-1.023-.665-1.534l-.337-.763a6.624,6.624,0,0,0-.362-.752l-.8-1.465a43.014,43.014,0,0,0-8.383-10.325,55.843,55.843,0,0,0-5.161-4.23c-.9-.653-1.815-1.283-2.747-1.88-.461-.307-.938-.583-1.405-.874-.466-.272-.962-.562-1.394-.788Z" transform="translate(-1141.585 3272.44)" fill="#fff"/>
          </g>
        </g>
        <g id="Gruppe_41" data-name="Gruppe 41" transform="translate(6.632 9.774)">
          <g id="Gruppe_25" data-name="Gruppe 25" transform="translate(0 32.615)">
            <g id="Gruppe_23" data-name="Gruppe 23" transform="translate(1.859 17.22)">
              <circle id="Ellipse_1" data-name="Ellipse 1" cx="4.162" cy="4.162" r="4.162" fill="#fff"/>
            </g>
            <g id="Gruppe_24" data-name="Gruppe 24">
              <path id="Pfad_17" data-name="Pfad 17" d="M692.631-3224.41a6.883,6.883,0,0,1-.4-.623c-.12-.2-.217-.39-.322-.585-.2-.391-.392-.779-.553-1.177s-.326-.791-.466-1.192-.267-.8-.392-1.205a27.633,27.633,0,0,1-.945-4.9c-.067-.823-.14-1.639-.139-2.46-.037-.817.009-1.634.038-2.447s.139-1.619.2-2.424c.106-.8.24-1.6.359-2.394,0,.807-.022,1.61-.013,2.411.05.8.053,1.6.143,2.395s.155,1.585.3,2.365c.111.784.295,1.554.47,2.32a25.91,25.91,0,0,0,1.527,4.405c.167.347.32.7.508,1.03s.361.669.561.988.4.631.614.93c.109.145.214.3.326.431a4.206,4.206,0,0,0,.306.354,1.4,1.4,0,0,1,.057,1.974,1.4,1.4,0,0,1-1.974.058,1.4,1.4,0,0,1-.169-.191Z" transform="translate(-689.402 3243.813)" fill="#fff"/>
            </g>
          </g>
          <g id="Gruppe_28" data-name="Gruppe 28" transform="translate(14.064 66.339)">
            <g id="Gruppe_26" data-name="Gruppe 26" transform="translate(17.16 1.477)">
              <circle id="Ellipse_2" data-name="Ellipse 2" cx="4.162" cy="4.162" r="4.162" fill="#fff"/>
            </g>
            <g id="Gruppe_27" data-name="Gruppe 27">
              <path id="Pfad_18" data-name="Pfad 18" d="M825.377-2954.358a6.989,6.989,0,0,1-.738.047c-.229.01-.446,0-.668,0-.438-.017-.872-.035-1.3-.087s-.85-.1-1.268-.17-.832-.156-1.244-.241a27.643,27.643,0,0,1-4.74-1.548c-.752-.34-1.5-.672-2.219-1.071-.733-.364-1.425-.8-2.121-1.219s-1.349-.907-2.021-1.354c-.65-.482-1.282-.986-1.92-1.475.7.394,1.4.8,2.1,1.18.726.344,1.426.729,2.163,1.036s1.461.633,2.216.88c.74.283,1.5.5,2.256.714a25.9,25.9,0,0,0,4.594.8c.384.022.766.059,1.147.055s.76.008,1.136-.011.748-.048,1.112-.086c.18-.025.365-.042.535-.077a4.153,4.153,0,0,0,.458-.1,1.4,1.4,0,0,1,1.754.907,1.4,1.4,0,0,1-.907,1.755,1.436,1.436,0,0,1-.249.055Z" transform="translate(-807.14 2961.479)" fill="#fff"/>
            </g>
          </g>
          <g id="Gruppe_31" data-name="Gruppe 31" transform="translate(50.079 50.85)">
            <g id="Gruppe_29" data-name="Gruppe 29" transform="translate(11.107)">
              <circle id="Ellipse_3" data-name="Ellipse 3" cx="4.162" cy="4.162" r="4.162" fill="#fff"/>
            </g>
            <g id="Gruppe_30" data-name="Gruppe 30" transform="translate(0 5.589)">
              <path id="Pfad_19" data-name="Pfad 19" d="M1123.727-3042.375a6.991,6.991,0,0,1-.316.668c-.1.206-.216.391-.325.583-.227.375-.453.746-.7,1.093s-.5.7-.764,1.027-.54.652-.814.971a27.64,27.64,0,0,1-3.652,3.4c-.662.493-1.317.988-2.013,1.421-.674.464-1.391.858-2.095,1.264s-1.448.74-2.164,1.111c-.737.335-1.484.644-2.221.964.686-.425,1.377-.835,2.051-1.267.653-.468,1.329-.893,1.955-1.39s1.262-.971,1.844-1.511c.606-.51,1.161-1.073,1.718-1.627a25.9,25.9,0,0,0,2.927-3.63c.206-.325.422-.641.6-.976s.376-.661.54-1,.321-.677.464-1.014c.065-.169.14-.34.193-.5a4.168,4.168,0,0,0,.138-.447,1.4,1.4,0,0,1,1.644-1.094,1.4,1.4,0,0,1,1.095,1.644,1.384,1.384,0,0,1-.073.244Z" transform="translate(-1108.658 3044.365)" fill="#fff"/>
            </g>
          </g>
          <g id="Gruppe_34" data-name="Gruppe 34" transform="translate(60.873 16.419)">
            <g id="Gruppe_32" data-name="Gruppe 32">
              <circle id="Ellipse_4" data-name="Ellipse 4" cx="4.162" cy="4.162" r="4.162" fill="#fff"/>
            </g>
            <g id="Gruppe_33" data-name="Gruppe 33" transform="translate(4.524 5.416)">
              <path id="Pfad_20" data-name="Pfad 20" d="M1239.431-3333.481a7.018,7.018,0,0,1,.431.6c.13.189.237.378.352.567.218.38.433.757.614,1.146s.367.773.527,1.166.308.789.455,1.183a27.649,27.649,0,0,1,1.2,4.84c.11.818.226,1.63.267,2.45.079.814.076,1.632.09,2.445s-.054,1.625-.078,2.431c-.064.807-.156,1.61-.233,2.41-.039-.806-.062-1.609-.114-2.408-.092-.8-.137-1.6-.268-2.384s-.238-1.574-.428-2.345c-.152-.777-.376-1.536-.59-2.292a25.916,25.916,0,0,0-1.756-4.319c-.184-.337-.356-.68-.561-1s-.4-.649-.612-.957-.437-.608-.662-.9c-.116-.139-.229-.287-.348-.413a4.151,4.151,0,0,0-.324-.337,1.4,1.4,0,0,1-.161-1.969,1.4,1.4,0,0,1,1.968-.16,1.37,1.37,0,0,1,.179.182Z" transform="translate(-1236.902 3334.057)" fill="#fff"/>
            </g>
          </g>
          <g id="Gruppe_37" data-name="Gruppe 37" transform="translate(30.608)">
            <g id="Gruppe_35" data-name="Gruppe 35">
              <circle id="Ellipse_5" data-name="Ellipse 5" cx="4.162" cy="4.162" r="4.162" fill="#fff"/>
            </g>
            <g id="Gruppe_36" data-name="Gruppe 36" transform="translate(5.936 2.397)">
              <path id="Pfad_21" data-name="Pfad 21" d="M996.574-3496.669a6.929,6.929,0,0,1,.735-.086c.228-.022.446-.023.667-.033.439-.006.872-.011,1.3.018s.854.054,1.275.1.839.113,1.255.176a27.67,27.67,0,0,1,4.815,1.3c.769.3,1.535.593,2.272.954.751.325,1.465.724,2.182,1.107s1.395.835,2.089,1.246c.675.448,1.332.917,1.995,1.372-.724-.357-1.438-.726-2.161-1.068-.743-.306-1.462-.654-2.215-.922s-1.492-.555-2.258-.763c-.754-.244-1.526-.416-2.291-.595a25.907,25.907,0,0,0-4.629-.558c-.384,0-.768-.019-1.148.005s-.759.031-1.134.071-.744.087-1.105.144c-.178.035-.362.062-.53.1a4.143,4.143,0,0,0-.453.12,1.4,1.4,0,0,1-1.8-.814,1.4,1.4,0,0,1,.814-1.8,1.412,1.412,0,0,1,.246-.068Z" transform="translate(-995.345 3496.792)" fill="#fff"/>
            </g>
          </g>
          <g id="Gruppe_40" data-name="Gruppe 40" transform="translate(1.575 5.98)">
            <g id="Gruppe_38" data-name="Gruppe 38" transform="translate(0 12.531)">
              <circle id="Ellipse_6" data-name="Ellipse 6" cx="4.162" cy="4.162" r="4.162" fill="#fff"/>
            </g>
            <g id="Gruppe_39" data-name="Gruppe 39" transform="translate(4.081)">
              <path id="Pfad_22" data-name="Pfad 22" d="M736.854-3453.524a6.919,6.919,0,0,1,.281-.684c.091-.211.2-.4.294-.6.207-.387.413-.769.646-1.129s.461-.721.709-1.065.505-.68.762-1.013a27.639,27.639,0,0,1,3.469-3.582c.635-.527,1.263-1.055,1.936-1.524.649-.5,1.344-.93,2.026-1.372s1.407-.815,2.1-1.223c.718-.373,1.448-.72,2.167-1.079-.663.46-1.331.906-1.982,1.373-.628.5-1.281.962-1.88,1.49s-1.209,1.036-1.762,1.605c-.579.541-1.1,1.133-1.631,1.715a25.934,25.934,0,0,0-2.733,3.778c-.188.335-.388.662-.552,1.007s-.341.68-.487,1.026-.285.693-.41,1.037c-.056.172-.122.346-.166.514a4.185,4.185,0,0,0-.115.453,1.4,1.4,0,0,1-1.584,1.179,1.4,1.4,0,0,1-1.179-1.584,1.39,1.39,0,0,1,.06-.248Z" transform="translate(-736.753 3466.794)" fill="#fff"/>
            </g>
          </g>
        </g>
      </g>
    </g>
    <g id="Gruppe_47" data-name="Gruppe 47" transform="translate(436.95 -107)">
      <path id="Pfad_25" data-name="Pfad 25" d="M2201.427-484.294v-18.445h11.866q5.078,0,7.809,2.373a8.443,8.443,0,0,1,2.731,6.736,10.016,10.016,0,0,1-1.064,4.65,8.067,8.067,0,0,1-3,3.254,8.708,8.708,0,0,1-2.992,1.091,25.3,25.3,0,0,1-4.581.34Zm4.293-3.472h5.55q4.432,0,6.282-1.379t1.849-4.554a5.633,5.633,0,0,0-1.535-4.284,6.361,6.361,0,0,0-4.537-1.457h-7.608Z" transform="translate(-2201.344 502.739)" fill="#fff"/>
      <path id="Pfad_26" data-name="Pfad 26" d="M2281.617-498.376q0-2.513.942-3.438t3.63-.925h13.577q2.687,0,3.629.925t.942,3.438v9.72q0,2.531-.942,3.447t-3.629.916h-13.577q-2.687,0-3.63-.916t-.942-3.447Zm4.293,10.61h14.152v-11.674H2285.91Z" transform="translate(-2244.387 502.739)" fill="#fff"/>
      <path id="Pfad_27" data-name="Pfad 27" d="M2369.591-499.441v15.147H2365.3v-15.147h-8.463v-3.3h21.254v3.3Z" transform="translate(-2284.761 502.739)" fill="#fff"/>
      <path id="Pfad_28" data-name="Pfad 28" d="M2429.64-484.294v-18.445h2.931l12.983,10.871q.663.541,1.169,1.021a11.19,11.19,0,0,1,.925.986q-.1-1.553-.139-2.2t-.035-.995v-9.685h3.857v18.445H2448.4l-13.542-11.4q-.489-.436-.855-.785a9.715,9.715,0,0,1-.68-.715q.087.855.131,1.614c.029.506.044.945.044,1.317v9.964Z" transform="translate(-2323.84 502.739)" fill="#fff"/>
      <path id="Pfad_29" data-name="Pfad 29" d="M2512.428-484.294v-18.445h18.881v3.141h-14.588v4.118h8.516v3.141h-8.516v4.572h14.763v3.472Z" transform="translate(-2368.278 502.739)" fill="#fff"/>
      <path id="Pfad_30" data-name="Pfad 30" d="M2590.08-499.441v15.147h-4.293v-15.147h-8.463v-3.3h21.254v3.3Z" transform="translate(-2403.111 502.739)" fill="#fff"/>
      <path id="Pfad_31" data-name="Pfad 31" d="M2214.66-431.291c0,5.051-3.07,7.729-6.814,7.729-3.875,0-6.6-3-6.6-7.445,0-4.659,2.9-7.707,6.814-7.707C2212.069-438.715,2214.66-435.645,2214.66-431.291Zm-11.386.24c0,3.135,1.7,5.944,4.68,5.944,3,0,4.7-2.765,4.7-6.1,0-2.917-1.524-5.965-4.681-5.965C2204.841-437.169,2203.273-434.273,2203.273-431.052Z" transform="translate(-2201.249 468.373)" fill="#fff"/>
      <path id="Pfad_32" data-name="Pfad 32" d="M2245.052-438.15a21.947,21.947,0,0,1,3.636-.284,6.029,6.029,0,0,1,4.114,1.219,3.944,3.944,0,0,1,1.285,3.07,4.32,4.32,0,0,1-1.132,3.135,6.082,6.082,0,0,1-4.485,1.611,6.52,6.52,0,0,1-1.524-.131v5.878h-1.894Zm1.894,7.075a6.35,6.35,0,0,0,1.567.152c2.286,0,3.679-1.11,3.679-3.135,0-1.938-1.371-2.874-3.461-2.874a7.913,7.913,0,0,0-1.785.153Z" transform="translate(-2224.761 468.222)" fill="#fff"/>
      <path id="Pfad_33" data-name="Pfad 33" d="M2288.842-424.281a9.4,9.4,0,0,1-3.875.7c-4.136,0-7.25-2.612-7.25-7.423a7.3,7.3,0,0,1,7.663-7.707,7.871,7.871,0,0,1,3.483.653l-.457,1.546a6.9,6.9,0,0,0-2.961-.61c-3.44,0-5.726,2.2-5.726,6.052,0,3.592,2.069,5.9,5.639,5.9a7.578,7.578,0,0,0,3.091-.61Z" transform="translate(-2242.294 468.373)" fill="#fff"/>
      <path id="Pfad_34" data-name="Pfad 34" d="M2337.771-438.2v8.687c0,3.287,1.458,4.681,3.418,4.681,2.177,0,3.571-1.437,3.571-4.681V-438.2h1.916v8.556c0,4.507-2.373,6.357-5.552,6.357-3,0-5.268-1.72-5.268-6.27V-438.2Z" transform="translate(-2273.5 468.095)" fill="#fff"/>
      <path id="Pfad_35" data-name="Pfad 35" d="M2375.34-428.139l-1.524,4.615h-1.96l4.986-14.673h2.286l5.008,14.673h-2.025l-1.567-4.615Zm4.811-1.481-1.437-4.223c-.327-.958-.544-1.829-.762-2.678h-.043c-.218.871-.458,1.763-.74,2.656l-1.437,4.245Z" transform="translate(-2292.824 468.095)" fill="#fff"/>
      <path id="Pfad_36" data-name="Pfad 36" d="M2441.308-424.281a9.4,9.4,0,0,1-3.875.7c-4.137,0-7.25-2.612-7.25-7.423a7.3,7.3,0,0,1,7.663-7.707,7.873,7.873,0,0,1,3.484.653l-.457,1.546a6.9,6.9,0,0,0-2.961-.61c-3.44,0-5.726,2.2-5.726,6.052,0,3.592,2.068,5.9,5.638,5.9a7.581,7.581,0,0,0,3.092-.61Z" transform="translate(-2324.132 468.373)" fill="#fff"/>
      <path id="Pfad_37" data-name="Pfad 37" d="M2468.863-438.2h1.894v13.084h6.27v1.589h-8.164Z" transform="translate(-2344.894 468.095)" fill="#fff"/>
      <path id="Pfad_38" data-name="Pfad 38" d="M2502.481-438.2v14.673h-1.893V-438.2Z" transform="translate(-2361.922 468.095)" fill="#fff"/>
      <path id="Pfad_39" data-name="Pfad 39" d="M2528.959-430.4h-5.7v5.29h6.358v1.589h-8.252V-438.2h7.925v1.589h-6.031v4.637h5.7Z" transform="translate(-2373.073 468.095)" fill="#fff"/>
      <path id="Pfad_40" data-name="Pfad 40" d="M2554.025-423.524V-438.2h2.068l4.7,7.423a41.507,41.507,0,0,1,2.634,4.768l.044-.022c-.174-1.96-.218-3.745-.218-6.03V-438.2h1.785v14.673h-1.916l-4.66-7.446a46.666,46.666,0,0,1-2.743-4.9l-.065.022c.109,1.851.153,3.614.153,6.052v6.27Z" transform="translate(-2390.605 468.095)" fill="#fff"/>
      <path id="Pfad_41" data-name="Pfad 41" d="M2595.337-436.586h-4.463V-438.2h10.864v1.611h-4.485v13.062h-1.916Z" transform="translate(-2410.384 468.095)" fill="#fff"/>
    </g>
  </g>
</svg>
