<svg xmlns="http://www.w3.org/2000/svg" width="235.367" height="189.176" viewBox="0 0 235.367 189.176">
  <g id="Gruppe_48" data-name="Gruppe 48" transform="translate(-842 -295.824)">
    <g id="Gruppe_43" data-name="Gruppe 43" transform="translate(305 -489.029)">
      <g id="Gruppe_42" data-name="Gruppe 42" transform="translate(604 784.852)">
        <g id="Gruppe_22" data-name="Gruppe 22">
          <g id="Gruppe_1" data-name="Gruppe 1" transform="translate(27.303 41.96)">
            <path id="Pfad_1" data-name="Pfad 1" d="M828.855-3296.642a5.158,5.158,0,0,1-5.152-5.152,5.158,5.158,0,0,1,5.152-5.152,5.158,5.158,0,0,1,5.152,5.152A5.158,5.158,0,0,1,828.855-3296.642Zm0-7.911a2.762,2.762,0,0,0-2.759,2.759,2.762,2.762,0,0,0,2.759,2.759,2.762,2.762,0,0,0,2.759-2.759A2.762,2.762,0,0,0,828.855-3304.553Z" transform="translate(-823.703 3306.946)" fill="#fff"/>
          </g>
          <g id="Gruppe_2" data-name="Gruppe 2" transform="translate(64.941 41.96)">
            <path id="Pfad_2" data-name="Pfad 2" d="M1090.543-3296.642a5.158,5.158,0,0,1-5.152-5.152,5.158,5.158,0,0,1,5.152-5.152,5.158,5.158,0,0,1,5.153,5.152A5.159,5.159,0,0,1,1090.543-3296.642Zm0-7.911a2.762,2.762,0,0,0-2.758,2.759,2.762,2.762,0,0,0,2.758,2.759,2.762,2.762,0,0,0,2.759-2.759A2.762,2.762,0,0,0,1090.543-3304.553Z" transform="translate(-1085.391 3306.946)" fill="#fff"/>
          </g>
          <g id="Gruppe_3" data-name="Gruppe 3" transform="translate(64.941 63.663)">
            <path id="Pfad_3" data-name="Pfad 3" d="M1090.543-3145.752a5.158,5.158,0,0,1-5.152-5.152,5.158,5.158,0,0,1,5.152-5.152,5.158,5.158,0,0,1,5.153,5.152A5.159,5.159,0,0,1,1090.543-3145.752Zm0-7.911a2.762,2.762,0,0,0-2.758,2.759,2.762,2.762,0,0,0,2.758,2.759,2.762,2.762,0,0,0,2.759-2.759A2.762,2.762,0,0,0,1090.543-3153.663Z" transform="translate(-1085.391 3156.056)" fill="#fff"/>
          </g>
          <g id="Gruppe_4" data-name="Gruppe 4" transform="translate(27.303 63.663)">
            <path id="Pfad_4" data-name="Pfad 4" d="M828.855-3145.752a5.158,5.158,0,0,1-5.152-5.152,5.158,5.158,0,0,1,5.152-5.152,5.158,5.158,0,0,1,5.152,5.152A5.158,5.158,0,0,1,828.855-3145.752Zm0-7.911a2.762,2.762,0,0,0-2.759,2.759,2.762,2.762,0,0,0,2.759,2.759,2.762,2.762,0,0,0,2.759-2.759A2.762,2.762,0,0,0,828.855-3153.663Z" transform="translate(-823.703 3156.056)" fill="#fff"/>
          </g>
          <g id="Gruppe_5" data-name="Gruppe 5" transform="translate(46.122 74.35)">
            <path id="Pfad_5" data-name="Pfad 5" d="M959.7-3071.451a5.158,5.158,0,0,1-5.152-5.152,5.158,5.158,0,0,1,5.152-5.152,5.158,5.158,0,0,1,5.152,5.152A5.158,5.158,0,0,1,959.7-3071.451Zm0-7.911a2.762,2.762,0,0,0-2.759,2.759,2.763,2.763,0,0,0,2.759,2.759,2.762,2.762,0,0,0,2.759-2.759A2.762,2.762,0,0,0,959.7-3079.362Z" transform="translate(-954.548 3081.755)" fill="#fff"/>
          </g>
          <g id="Gruppe_6" data-name="Gruppe 6" transform="translate(46.122 31.811)">
            <path id="Pfad_6" data-name="Pfad 6" d="M959.7-3367.209a5.158,5.158,0,0,1-5.152-5.152,5.158,5.158,0,0,1,5.152-5.152,5.158,5.158,0,0,1,5.152,5.152A5.158,5.158,0,0,1,959.7-3367.209Zm0-7.911a2.763,2.763,0,0,0-2.759,2.759,2.762,2.762,0,0,0,2.759,2.759,2.762,2.762,0,0,0,2.759-2.759A2.762,2.762,0,0,0,959.7-3375.12Z" transform="translate(-954.548 3377.513)" fill="#fff"/>
          </g>
          <g id="Gruppe_15" data-name="Gruppe 15" transform="translate(31.024 37.231)">
            <g id="Gruppe_9" data-name="Gruppe 9" transform="translate(3.046 32.422)">
              <g id="Gruppe_7" data-name="Gruppe 7" transform="translate(20.409)">
                <path id="Pfad_7" data-name="Pfad 7" d="M1012.65-3107.81v2.744l13.394-7.516h-1.64v-1.824Z" transform="translate(-1012.65 3114.406)" fill="#fff"/>
              </g>
              <g id="Gruppe_8" data-name="Gruppe 8" transform="translate(0 0.185)">
                <path id="Pfad_8" data-name="Pfad 8" d="M884.752-3106.579l-11.659-6.543v1.431h-2.341l14,7.856Z" transform="translate(-870.752 3113.122)" fill="#fff"/>
              </g>
            </g>
            <g id="Gruppe_10" data-name="Gruppe 10" transform="translate(37.873 13.869)">
              <rect id="Rechteck_1" data-name="Rechteck 1" width="2.394" height="13.968" fill="#fff"/>
            </g>
            <g id="Gruppe_11" data-name="Gruppe 11" transform="translate(0 13.086)">
              <rect id="Rechteck_2" data-name="Rechteck 2" width="2.393" height="14.542" fill="#fff"/>
            </g>
            <g id="Gruppe_14" data-name="Gruppe 14" transform="translate(4.764)">
              <g id="Gruppe_12" data-name="Gruppe 12">
                <path id="Pfad_9" data-name="Pfad 9" d="M895.174-3339.826l-12.475,7v2.744l12.475-7Z" transform="translate(-882.698 3339.826)" fill="#fff"/>
              </g>
              <g id="Gruppe_13" data-name="Gruppe 13" transform="translate(18.885 0.349)">
                <path id="Pfad_10" data-name="Pfad 10" d="M1014-3337.4v2.744l11.921,6.69v-2.324h.75Z" transform="translate(-1013.999 3337.398)" fill="#fff"/>
              </g>
            </g>
          </g>
          <g id="Gruppe_16" data-name="Gruppe 16" transform="translate(53.449 24.187)">
            <path id="Pfad_11" data-name="Pfad 11" d="M1005.491-3421.623c1.313-.785,2.532-1.4,3.82-2.038s2.563-1.2,3.866-1.748a70.992,70.992,0,0,1,7.979-2.805,54.544,54.544,0,0,1,16.7-2.282l2.112.1a8.78,8.78,0,0,1,1.052.1l1.049.138c.7.1,1.4.17,2.093.29.7.162,1.4.258,2.081.477l1.03.294,1.012.375a8.987,8.987,0,0,1,.992.434,7.748,7.748,0,0,1,.964.505,9.15,9.15,0,0,1,3.215,2.966,8.193,8.193,0,0,1,1.249,4.149,13.252,13.252,0,0,1-.631,4.177,21.647,21.647,0,0,1-1.623,3.831,26.6,26.6,0,0,1-2.215,3.489,24.717,24.717,0,0,0,3.3-7.465,12.57,12.57,0,0,0,.335-3.977,7.209,7.209,0,0,0-1.335-3.574,7.907,7.907,0,0,0-2.959-2.372,6.652,6.652,0,0,0-.89-.392,7.7,7.7,0,0,0-.921-.33l-.942-.28-.97-.206c-.638-.16-1.312-.205-1.964-.312-.664-.068-1.34-.091-2.008-.14l-1-.064a8,8,0,0,0-1-.03l-2.011.046a51.776,51.776,0,0,0-15.685,3.234,67.281,67.281,0,0,0-7.383,3.17c-1.2.6-2.378,1.228-3.533,1.893-.584.323-1.143.679-1.714,1.018-.55.347-1.135.716-1.615,1.053Z" transform="translate(-1005.491 3430.522)" fill="#fff"/>
          </g>
          <g id="Gruppe_17" data-name="Gruppe 17" transform="translate(30.326 0)">
            <path id="Pfad_12" data-name="Pfad 12" d="M844.72-3556.035c.011-1.53.115-2.894.243-4.323.13-1.412.3-2.815.516-4.211a70.947,70.947,0,0,1,1.748-8.276,54.55,54.55,0,0,1,6.727-15.456l1.179-1.756a8.754,8.754,0,0,1,.634-.845l.662-.825c.447-.546.871-1.1,1.335-1.637.5-.51.945-1.058,1.489-1.53l.786-.728.847-.67a8.914,8.914,0,0,1,.886-.623,7.788,7.788,0,0,1,.933-.561,9.149,9.149,0,0,1,4.2-1.206,8.19,8.19,0,0,1,4.194,1.088,13.254,13.254,0,0,1,3.241,2.708,21.644,21.644,0,0,1,2.43,3.377,26.666,26.666,0,0,1,1.831,3.7,24.725,24.725,0,0,0-4.664-6.7,12.561,12.561,0,0,0-3.224-2.352,7.207,7.207,0,0,0-3.747-.716,7.907,7.907,0,0,0-3.563,1.3,6.681,6.681,0,0,0-.8.557,7.76,7.76,0,0,0-.76.615l-.729.66-.68.722c-.468.462-.857,1.015-1.288,1.516-.4.532-.774,1.1-1.162,1.643l-.576.824a7.968,7.968,0,0,0-.547.842l-1.005,1.742a51.794,51.794,0,0,0-5.385,15.082,67.319,67.319,0,0,0-1.127,7.956c-.11,1.333-.186,2.67-.218,4-.028.667-.014,1.33-.021,1.993.011.65.022,1.342.061,1.927Z" transform="translate(-844.72 3598.683)" fill="#fff"/>
          </g>
          <g id="Gruppe_18" data-name="Gruppe 18" transform="translate(1.366 22.482)">
            <path id="Pfad_13" data-name="Pfad 13" d="M669.478-3396.562c-1.3-.8-2.413-1.6-3.568-2.452q-1.71-1.266-3.332-2.627a70.931,70.931,0,0,1-6.165-5.791,54.557,54.557,0,0,1-9.717-13.773l-.889-1.919a8.728,8.728,0,0,1-.393-.981l-.361-.995c-.235-.665-.492-1.318-.706-1.991-.177-.691-.414-1.357-.535-2.067l-.214-1.05-.133-1.072a8.939,8.939,0,0,1-.072-1.081,7.773,7.773,0,0,1,.005-1.089,9.149,9.149,0,0,1,1.153-4.219,8.193,8.193,0,0,1,3.107-3.02,13.248,13.248,0,0,1,4-1.364,21.654,21.654,0,0,1,4.148-.323,26.628,26.628,0,0,1,4.116.359,24.721,24.721,0,0,0-8.146.509,12.562,12.562,0,0,0-3.684,1.535,7.208,7.208,0,0,0-2.557,2.831,7.907,7.907,0,0,0-.742,3.719,6.615,6.615,0,0,0,.062.97,7.723,7.723,0,0,0,.131.969l.186.966.264.956c.152.64.423,1.26.627,1.888.245.621.536,1.231.8,1.846l.405.92a7.936,7.936,0,0,0,.435.9l.967,1.764a51.8,51.8,0,0,0,10.094,12.433,67.294,67.294,0,0,0,6.214,5.094c1.082.787,2.185,1.545,3.307,2.264.555.37,1.129.7,1.692,1.052.561.328,1.158.677,1.678.948Z" transform="translate(-643.376 3442.375)" fill="#fff"/>
          </g>
          <g id="Gruppe_19" data-name="Gruppe 19" transform="translate(0 69.682)">
            <path id="Pfad_14" data-name="Pfad 14" d="M683.1-3101.755c-1.313.785-2.532,1.4-3.82,2.038s-2.564,1.2-3.866,1.747a70.954,70.954,0,0,1-7.98,2.806,54.558,54.558,0,0,1-16.7,2.281l-2.112-.095a8.778,8.778,0,0,1-1.052-.1l-1.049-.137c-.7-.1-1.4-.171-2.093-.29-.7-.162-1.395-.258-2.081-.477l-1.03-.294-1.012-.375a8.9,8.9,0,0,1-.992-.434,7.792,7.792,0,0,1-.964-.506,9.151,9.151,0,0,1-3.215-2.966,8.192,8.192,0,0,1-1.249-4.149,13.249,13.249,0,0,1,.631-4.177,21.645,21.645,0,0,1,1.623-3.831,26.654,26.654,0,0,1,2.214-3.489,24.724,24.724,0,0,0-3.3,7.465,12.563,12.563,0,0,0-.335,3.977,7.207,7.207,0,0,0,1.335,3.574,7.907,7.907,0,0,0,2.959,2.372,6.644,6.644,0,0,0,.89.392,7.694,7.694,0,0,0,.92.33l.943.28.97.206c.638.16,1.312.205,1.964.313.664.068,1.34.091,2.008.14l1,.064a7.954,7.954,0,0,0,1,.031l2.011-.046a51.79,51.79,0,0,0,15.685-3.234,67.189,67.189,0,0,0,7.383-3.17c1.2-.6,2.378-1.228,3.533-1.893.584-.323,1.143-.679,1.714-1.018.55-.347,1.135-.716,1.615-1.053Z" transform="translate(-633.876 3114.205)" fill="#fff"/>
          </g>
          <g id="Gruppe_20" data-name="Gruppe 20" transform="translate(38.458 72.57)">
            <path id="Pfad_15" data-name="Pfad 15" d="M935.15-3094.128c-.011,1.53-.115,2.894-.243,4.323-.13,1.412-.3,2.815-.515,4.211a70.929,70.929,0,0,1-1.748,8.276,54.553,54.553,0,0,1-6.726,15.456l-1.179,1.755a8.715,8.715,0,0,1-.634.845l-.662.825c-.447.546-.871,1.1-1.335,1.637-.5.51-.945,1.058-1.489,1.531l-.786.727-.847.67a8.964,8.964,0,0,1-.886.623,7.789,7.789,0,0,1-.933.561,9.149,9.149,0,0,1-4.2,1.206,8.19,8.19,0,0,1-4.194-1.088,13.252,13.252,0,0,1-3.241-2.708,21.632,21.632,0,0,1-2.43-3.377,26.632,26.632,0,0,1-1.831-3.7,24.721,24.721,0,0,0,4.664,6.7,12.56,12.56,0,0,0,3.224,2.352,7.206,7.206,0,0,0,3.747.716,7.906,7.906,0,0,0,3.563-1.3,6.614,6.614,0,0,0,.8-.556,7.684,7.684,0,0,0,.76-.615l.729-.66.68-.722c.468-.462.857-1.015,1.288-1.516.4-.532.774-1.1,1.162-1.643l.576-.824a7.931,7.931,0,0,0,.548-.842l1.005-1.742a51.794,51.794,0,0,0,5.385-15.082,67.319,67.319,0,0,0,1.127-7.956c.11-1.333.186-2.669.217-4,.028-.667.014-1.33.021-1.993-.011-.65-.023-1.342-.061-1.927Z" transform="translate(-901.265 3094.128)" fill="#fff"/>
          </g>
          <g id="Gruppe_21" data-name="Gruppe 21" transform="translate(73.024 46.923)">
            <path id="Pfad_16" data-name="Pfad 16" d="M1143.762-3272.44c1.3.8,2.413,1.6,3.568,2.452q1.709,1.266,3.332,2.627a70.859,70.859,0,0,1,6.165,5.791,54.542,54.542,0,0,1,9.717,13.773l.889,1.919a8.761,8.761,0,0,1,.393.981l.361.994c.235.665.492,1.318.706,1.991.177.691.413,1.357.535,2.067l.214,1.05.133,1.072a8.939,8.939,0,0,1,.072,1.081,7.77,7.77,0,0,1,0,1.088,9.148,9.148,0,0,1-1.152,4.219,8.19,8.19,0,0,1-3.107,3.02,13.248,13.248,0,0,1-4,1.364,21.656,21.656,0,0,1-4.148.324,26.661,26.661,0,0,1-4.117-.359,24.714,24.714,0,0,0,8.146-.509,12.571,12.571,0,0,0,3.684-1.534,7.211,7.211,0,0,0,2.558-2.831,7.909,7.909,0,0,0,.742-3.719,6.649,6.649,0,0,0-.062-.97,7.7,7.7,0,0,0-.131-.969l-.186-.966-.264-.956c-.152-.64-.422-1.259-.627-1.888-.246-.621-.536-1.232-.8-1.846l-.405-.919a7.983,7.983,0,0,0-.435-.905l-.967-1.764a51.793,51.793,0,0,0-10.094-12.433,67.271,67.271,0,0,0-6.214-5.094c-1.082-.787-2.185-1.545-3.307-2.264-.555-.37-1.129-.7-1.692-1.052-.561-.328-1.158-.677-1.678-.948Z" transform="translate(-1141.585 3272.44)" fill="#fff"/>
          </g>
        </g>
        <g id="Gruppe_41" data-name="Gruppe 41" transform="translate(7.986 11.769)">
          <g id="Gruppe_25" data-name="Gruppe 25" transform="translate(0 39.272)">
            <g id="Gruppe_23" data-name="Gruppe 23" transform="translate(2.239 20.736)">
              <circle id="Ellipse_1" data-name="Ellipse 1" cx="5.011" cy="5.011" r="5.011" fill="#fff"/>
            </g>
            <g id="Gruppe_24" data-name="Gruppe 24">
              <path id="Pfad_17" data-name="Pfad 17" d="M693.29-3220.45a8.3,8.3,0,0,1-.481-.75c-.145-.235-.261-.47-.388-.7-.238-.471-.472-.938-.666-1.417s-.393-.953-.561-1.435c-.185-.477-.321-.967-.472-1.451a33.28,33.28,0,0,1-1.137-5.9c-.081-.991-.169-1.974-.167-2.962-.044-.984.011-1.968.046-2.946s.168-1.95.246-2.919c.128-.966.289-1.926.432-2.883,0,.972-.026,1.939-.015,2.9.061.966.064,1.928.172,2.883s.187,1.908.367,2.847c.134.944.355,1.871.565,2.793a31.19,31.19,0,0,0,1.839,5.3c.2.417.385.841.612,1.24.211.408.435.806.675,1.189s.487.759.74,1.12c.131.175.257.359.393.519a5.071,5.071,0,0,0,.368.427,1.681,1.681,0,0,1,.069,2.377,1.681,1.681,0,0,1-2.377.069,1.7,1.7,0,0,1-.2-.23Z" transform="translate(-689.402 3243.813)" fill="#fff"/>
            </g>
          </g>
          <g id="Gruppe_28" data-name="Gruppe 28" transform="translate(16.934 79.88)">
            <g id="Gruppe_26" data-name="Gruppe 26" transform="translate(20.663 1.778)">
              <circle id="Ellipse_2" data-name="Ellipse 2" cx="5.011" cy="5.011" r="5.011" fill="#fff"/>
            </g>
            <g id="Gruppe_27" data-name="Gruppe 27">
              <path id="Pfad_18" data-name="Pfad 18" d="M829.1-2952.905a8.387,8.387,0,0,1-.889.057c-.276.012-.537,0-.8,0-.528-.02-1.05-.042-1.562-.1s-1.024-.118-1.527-.205c-.507-.07-1-.188-1.5-.29a33.287,33.287,0,0,1-5.708-1.864c-.906-.41-1.809-.81-2.672-1.29-.882-.439-1.716-.964-2.554-1.469s-1.625-1.092-2.433-1.63c-.783-.581-1.544-1.187-2.312-1.776.848.475,1.683.963,2.532,1.421.874.415,1.717.878,2.6,1.248s1.759.762,2.668,1.06c.891.34,1.809.6,2.717.859a31.163,31.163,0,0,0,5.531.963c.462.027.922.071,1.381.066.459.013.915.01,1.368-.014s.9-.058,1.338-.1c.216-.03.439-.051.644-.092a5.1,5.1,0,0,0,.552-.115,1.681,1.681,0,0,1,2.112,1.092,1.682,1.682,0,0,1-1.092,2.113,1.7,1.7,0,0,1-.3.066Z" transform="translate(-807.14 2961.479)" fill="#fff"/>
            </g>
          </g>
          <g id="Gruppe_31" data-name="Gruppe 31" transform="translate(60.301 61.229)">
            <g id="Gruppe_29" data-name="Gruppe 29" transform="translate(13.374)">
              <circle id="Ellipse_3" data-name="Ellipse 3" cx="5.011" cy="5.011" r="5.011" fill="#fff"/>
            </g>
            <g id="Gruppe_30" data-name="Gruppe 30" transform="translate(0 6.729)">
              <path id="Pfad_19" data-name="Pfad 19" d="M1126.8-3041.969a8.4,8.4,0,0,1-.381.8c-.123.247-.26.47-.392.7-.273.452-.546.9-.849,1.316s-.6.838-.92,1.236-.65.785-.98,1.17a33.268,33.268,0,0,1-4.4,4.089c-.8.593-1.585,1.189-2.424,1.711-.811.559-1.674,1.033-2.522,1.522s-1.743.891-2.606,1.338c-.887.4-1.787.775-2.674,1.161.826-.511,1.658-1.005,2.47-1.526.787-.563,1.6-1.076,2.354-1.673s1.519-1.169,2.22-1.82c.73-.614,1.4-1.292,2.069-1.959a31.193,31.193,0,0,0,3.524-4.371c.248-.391.509-.772.727-1.176.234-.4.453-.8.651-1.2s.386-.815.558-1.221c.079-.2.168-.409.232-.608a5.019,5.019,0,0,0,.167-.538,1.681,1.681,0,0,1,1.979-1.318,1.681,1.681,0,0,1,1.318,1.979,1.666,1.666,0,0,1-.087.294Z" transform="translate(-1108.658 3044.365)" fill="#fff"/>
            </g>
          </g>
          <g id="Gruppe_34" data-name="Gruppe 34" transform="translate(73.299 19.77)">
            <g id="Gruppe_32" data-name="Gruppe 32">
              <circle id="Ellipse_4" data-name="Ellipse 4" cx="5.011" cy="5.011" r="5.011" fill="#fff"/>
            </g>
            <g id="Gruppe_33" data-name="Gruppe 33" transform="translate(5.448 6.522)">
              <path id="Pfad_20" data-name="Pfad 20" d="M1239.947-3333.363a8.383,8.383,0,0,1,.519.724c.157.228.285.456.424.683.263.458.521.912.74,1.38s.442.931.635,1.4c.21.467.371.949.548,1.424a33.3,33.3,0,0,1,1.444,5.829c.132.985.272,1.963.322,2.949.1.98.092,1.966.108,2.944s-.065,1.956-.093,2.927c-.077.972-.188,1.939-.281,2.9-.047-.971-.075-1.937-.137-2.9-.111-.961-.165-1.922-.322-2.87s-.286-1.9-.515-2.824c-.183-.936-.453-1.85-.711-2.76a31.183,31.183,0,0,0-2.114-5.2c-.222-.406-.429-.819-.676-1.206-.232-.4-.477-.782-.737-1.153s-.526-.732-.8-1.08c-.14-.168-.276-.345-.419-.5a5.039,5.039,0,0,0-.39-.406,1.682,1.682,0,0,1-.194-2.37,1.682,1.682,0,0,1,2.37-.193,1.683,1.683,0,0,1,.215.219Z" transform="translate(-1236.902 3334.057)" fill="#fff"/>
            </g>
          </g>
          <g id="Gruppe_37" data-name="Gruppe 37" transform="translate(36.856)">
            <g id="Gruppe_35" data-name="Gruppe 35">
              <circle id="Ellipse_5" data-name="Ellipse 5" cx="5.011" cy="5.011" r="5.011" fill="#fff"/>
            </g>
            <g id="Gruppe_36" data-name="Gruppe 36" transform="translate(7.148 2.886)">
              <path id="Pfad_21" data-name="Pfad 21" d="M996.825-3496.644a8.394,8.394,0,0,1,.885-.1c.275-.026.537-.028.8-.04.528-.008,1.051-.013,1.566.022s1.029.065,1.536.125c.51.043,1.01.135,1.512.212a33.3,33.3,0,0,1,5.8,1.563c.926.362,1.849.714,2.736,1.149.9.392,1.764.872,2.627,1.333s1.679,1.005,2.515,1.5c.812.539,1.6,1.1,2.4,1.652-.872-.43-1.731-.874-2.6-1.286-.894-.369-1.761-.787-2.667-1.11s-1.8-.669-2.719-.919c-.908-.293-1.837-.5-2.758-.716a31.2,31.2,0,0,0-5.574-.672c-.463,0-.924-.022-1.382.007-.459.011-.914.038-1.365.085s-.9.1-1.331.174c-.214.042-.436.074-.638.126a5.025,5.025,0,0,0-.545.144,1.681,1.681,0,0,1-2.167-.98,1.682,1.682,0,0,1,.98-2.167,1.722,1.722,0,0,1,.3-.082Z" transform="translate(-995.345 3496.792)" fill="#fff"/>
            </g>
          </g>
          <g id="Gruppe_40" data-name="Gruppe 40" transform="translate(1.896 7.201)">
            <g id="Gruppe_38" data-name="Gruppe 38" transform="translate(0 15.088)">
              <circle id="Ellipse_6" data-name="Ellipse 6" cx="5.011" cy="5.011" r="5.011" fill="#fff"/>
            </g>
            <g id="Gruppe_39" data-name="Gruppe 39" transform="translate(4.914)">
              <path id="Pfad_22" data-name="Pfad 22" d="M736.875-3450.815a8.382,8.382,0,0,1,.338-.823c.11-.254.235-.483.354-.722.249-.466.5-.925.778-1.359s.555-.868.854-1.282.608-.818.918-1.22a33.3,33.3,0,0,1,4.177-4.313c.765-.634,1.521-1.271,2.331-1.835.781-.6,1.618-1.12,2.439-1.652s1.694-.981,2.532-1.473c.865-.449,1.744-.867,2.609-1.3-.8.554-1.6,1.09-2.387,1.653-.756.6-1.542,1.158-2.263,1.794s-1.456,1.247-2.122,1.933c-.7.651-1.329,1.364-1.964,2.065a31.214,31.214,0,0,0-3.291,4.549c-.227.4-.467.8-.664,1.212-.213.407-.41.818-.587,1.235s-.343.834-.494,1.249c-.068.207-.147.417-.2.619a5.04,5.04,0,0,0-.138.546,1.681,1.681,0,0,1-1.907,1.42,1.681,1.681,0,0,1-1.42-1.907,1.673,1.673,0,0,1,.072-.3Z" transform="translate(-736.753 3466.794)" fill="#fff"/>
            </g>
          </g>
        </g>
      </g>
    </g>
    <g id="Gruppe_47" data-name="Gruppe 47" transform="translate(-1359.249 933.781)">
      <path id="Pfad_25" data-name="Pfad 25" d="M2201.427-480.529v-22.21h14.289q6.115,0,9.4,2.858t3.289,8.111a12.06,12.06,0,0,1-1.282,5.6,9.715,9.715,0,0,1-3.615,3.919,10.485,10.485,0,0,1-3.6,1.314,30.469,30.469,0,0,1-5.516.409Zm5.169-4.181h6.682q5.336,0,7.564-1.661t2.227-5.484a6.782,6.782,0,0,0-1.849-5.159,7.659,7.659,0,0,0-5.463-1.754H2206.6Z" transform="translate(-0.079)" fill="#fff"/>
      <path id="Pfad_26" data-name="Pfad 26" d="M2281.617-497.486q0-3.026,1.135-4.139t4.37-1.114h16.348q3.235,0,4.37,1.114t1.135,4.139v11.7q0,3.047-1.135,4.15t-4.37,1.1h-16.348q-3.235,0-4.37-1.1t-1.135-4.15Zm5.169,12.775h17.041v-14.057h-17.041Z" transform="translate(-35.539)" fill="#fff"/>
      <path id="Pfad_27" data-name="Pfad 27" d="M2372.195-498.767v18.238h-5.169v-18.238h-10.19v-3.972h25.593v3.972Z" transform="translate(-68.8)" fill="#fff"/>
      <path id="Pfad_28" data-name="Pfad 28" d="M2429.64-480.529v-22.21h3.53l15.634,13.09q.8.652,1.408,1.229a13.471,13.471,0,0,1,1.113,1.187q-.125-1.87-.168-2.647t-.042-1.2v-11.662h4.644v22.21h-3.53l-16.306-13.721q-.588-.525-1.03-.945a11.642,11.642,0,0,1-.819-.861q.1,1.03.157,1.944t.053,1.586v12Z" transform="translate(-100.995)" fill="#fff"/>
      <path id="Pfad_29" data-name="Pfad 29" d="M2512.428-480.529v-22.21h22.735v3.782H2517.6V-494h10.254v3.782H2517.6v5.505h17.776v4.181Z" transform="translate(-137.604)" fill="#fff"/>
      <path id="Pfad_30" data-name="Pfad 30" d="M2592.684-498.767v18.238h-5.169v-18.238h-10.19v-3.972h25.593v3.972Z" transform="translate(-166.301)" fill="#fff"/>
      <path id="Pfad_31" data-name="Pfad 31" d="M2217.4-429.776c0,6.082-3.7,9.306-8.205,9.306-4.667,0-7.943-3.617-7.943-8.965,0-5.61,3.486-9.281,8.205-9.281C2214.277-438.715,2217.4-435.018,2217.4-429.776Zm-13.711.288c0,3.775,2.045,7.157,5.636,7.157,3.618,0,5.663-3.329,5.663-7.341,0-3.512-1.835-7.183-5.637-7.183C2205.574-436.854,2203.687-433.367,2203.687-429.487Z" transform="translate(0 -28.312)" fill="#fff"/>
      <path id="Pfad_32" data-name="Pfad 32" d="M2245.052-438.092a26.425,26.425,0,0,1,4.378-.341,7.26,7.26,0,0,1,4.954,1.468,4.75,4.75,0,0,1,1.547,3.7,5.2,5.2,0,0,1-1.363,3.775,7.323,7.323,0,0,1-5.4,1.939,7.848,7.848,0,0,1-1.834-.157v7.078h-2.281Zm2.281,8.519a7.644,7.644,0,0,0,1.887.184c2.753,0,4.43-1.336,4.43-3.775,0-2.333-1.651-3.461-4.168-3.461a9.523,9.523,0,0,0-2.149.184Z" transform="translate(-19.37 -28.436)" fill="#fff"/>
      <path id="Pfad_33" data-name="Pfad 33" d="M2291.113-421.335a11.321,11.321,0,0,1-4.667.839c-4.981,0-8.729-3.145-8.729-8.939,0-5.532,3.749-9.281,9.228-9.281a9.479,9.479,0,0,1,4.195.786l-.55,1.861a8.31,8.31,0,0,0-3.566-.734c-4.142,0-6.894,2.648-6.894,7.288,0,4.326,2.491,7.1,6.79,7.1a9.124,9.124,0,0,0,3.722-.734Z" transform="translate(-33.814 -28.312)" fill="#fff"/>
      <path id="Pfad_34" data-name="Pfad 34" d="M2338.162-438.2v10.46c0,3.958,1.756,5.636,4.115,5.636,2.622,0,4.3-1.73,4.3-5.636V-438.2h2.307v10.3c0,5.427-2.857,7.655-6.685,7.655-3.617,0-6.344-2.071-6.344-7.55V-438.2Z" transform="translate(-59.523 -28.541)" fill="#fff"/>
      <path id="Pfad_35" data-name="Pfad 35" d="M2376.051-426.086l-1.835,5.557h-2.36l6-17.668h2.752l6.03,17.668H2384.2l-1.887-5.557Zm5.793-1.783-1.73-5.085c-.393-1.154-.655-2.2-.918-3.225h-.052c-.262,1.049-.551,2.123-.891,3.2l-1.73,5.112Z" transform="translate(-75.443 -28.541)" fill="#fff"/>
      <path id="Pfad_36" data-name="Pfad 36" d="M2443.579-421.335a11.32,11.32,0,0,1-4.666.839c-4.981,0-8.729-3.145-8.729-8.939,0-5.532,3.749-9.281,9.228-9.281a9.481,9.481,0,0,1,4.195.786l-.551,1.861a8.308,8.308,0,0,0-3.565-.734c-4.142,0-6.894,2.648-6.894,7.288,0,4.326,2.49,7.1,6.789,7.1a9.127,9.127,0,0,0,3.723-.734Z" transform="translate(-101.235 -28.312)" fill="#fff"/>
      <path id="Pfad_37" data-name="Pfad 37" d="M2468.863-438.2h2.281v15.755h7.55v1.913h-9.831Z" transform="translate(-118.34 -28.541)" fill="#fff"/>
      <path id="Pfad_38" data-name="Pfad 38" d="M2502.868-438.2v17.668h-2.28V-438.2Z" transform="translate(-132.368 -28.541)" fill="#fff"/>
      <path id="Pfad_39" data-name="Pfad 39" d="M2530.51-428.812h-6.868v6.37h7.655v1.913h-9.936V-438.2h9.542v1.913h-7.261v5.584h6.868Z" transform="translate(-141.554 -28.541)" fill="#fff"/>
      <path id="Pfad_40" data-name="Pfad 40" d="M2554.025-420.529V-438.2h2.491l5.662,8.939a49.9,49.9,0,0,1,3.172,5.741l.053-.026c-.209-2.359-.262-4.509-.262-7.261V-438.2h2.149v17.668h-2.307l-5.61-8.965a56.107,56.107,0,0,1-3.3-5.9l-.079.026c.131,2.228.184,4.352.184,7.288v7.55Z" transform="translate(-155.998 -28.541)" fill="#fff"/>
      <path id="Pfad_41" data-name="Pfad 41" d="M2596.248-436.258h-5.374V-438.2h13.081v1.939h-5.4v15.729h-2.307Z" transform="translate(-172.293 -28.541)" fill="#fff"/>
    </g>
  </g>
</svg>
