<svg id="Icon_ionic-ios-mail" data-name="Icon ionic-ios-mail" xmlns="http://www.w3.org/2000/svg" width="16.94" height="11.728" viewBox="0 0 16.94 11.728">
  <path id="Pfad_23" data-name="Pfad 23" d="M20.176,10.339,15.795,14.8a.079.079,0,0,0,0,.114l3.066,3.266a.528.528,0,0,1,0,.749.531.531,0,0,1-.749,0l-3.054-3.254a.084.084,0,0,0-.118,0l-.745.757a3.279,3.279,0,0,1-2.337.985,3.344,3.344,0,0,1-2.386-1.014l-.717-.729a.084.084,0,0,0-.118,0L5.582,18.931a.531.531,0,0,1-.749,0,.528.528,0,0,1,0-.749L7.9,14.916a.087.087,0,0,0,0-.114L3.513,10.339a.08.08,0,0,0-.138.057v8.93a1.307,1.307,0,0,0,1.3,1.3H19.012a1.307,1.307,0,0,0,1.3-1.3V10.4A.081.081,0,0,0,20.176,10.339Z" transform="translate(-3.375 -8.901)" fill="#fff"/>
  <path id="Pfad_24" data-name="Pfad 24" d="M12.2,15.331a2.214,2.214,0,0,0,1.592-.668l6.389-6.5a1.28,1.28,0,0,0-.806-.285H5.032a1.271,1.271,0,0,0-.806.285l6.389,6.5A2.214,2.214,0,0,0,12.2,15.331Z" transform="translate(-3.733 -7.875)" fill="#fff"/>
</svg>
