<svg xmlns="http://www.w3.org/2000/svg" width="16.94" height="16.943" viewBox="0 0 16.94 16.943">
  <path id="Icon_awesome-globe" data-name="Icon awesome-globe" d="M11.495,5.755C11,2.7,9.831.563,8.472.563S5.944,2.7,5.449,5.755Zm-6.3,3.279a21.411,21.411,0,0,0,.113,2.186h6.33a21.411,21.411,0,0,0,.113-2.186,21.411,21.411,0,0,0-.113-2.186H5.305A21.411,21.411,0,0,0,5.192,9.034ZM16.284,5.755a8.49,8.49,0,0,0-5.4-4.837,11.529,11.529,0,0,1,1.708,4.837ZM6.053.918A8.484,8.484,0,0,0,.659,5.755H4.349A11.483,11.483,0,0,1,6.053.918Zm10.6,5.93H12.731c.072.717.113,1.452.113,2.186S12.8,10.5,12.731,11.22h3.915a8.4,8.4,0,0,0,.294-2.186A8.545,8.545,0,0,0,16.65,6.848ZM4.1,9.034c0-.734.041-1.469.113-2.186H.294a8.282,8.282,0,0,0,0,4.372H4.209C4.14,10.5,4.1,9.769,4.1,9.034Zm1.349,3.279c.5,3.05,1.664,5.192,3.023,5.192S11,15.364,11.495,12.314Zm5.442,4.837a8.5,8.5,0,0,0,5.4-4.837H12.6a11.529,11.529,0,0,1-1.708,4.837ZM.659,12.314a8.49,8.49,0,0,0,5.4,4.837,11.529,11.529,0,0,1-1.708-4.837H.659Z" transform="translate(0 -0.563)" fill="#fff"/>
</svg>
